<svg xmlns="http://www.w3.org/2000/svg" viewBox="2 2 96 96">
    <path d="M28.1,43.2c-2,2-2,5.3,0,7.4l18.2,18.2c1,1,2.3,1.5,3.7,1.5c1.4,0,2.7-0.5,3.7-1.5l18.2-18.2c2-2,2-5.3,0-7.4     c-2-2-5.3-2-7.4,0l-9.3,9.3V7.7c0-2.9-2.3-5.2-5.2-5.2c-2.9,0-5.2,2.3-5.2,5.2v44.8l-9.3-9.3C33.4,41.1,30.1,41.1,28.1,43.2z"/>
    <path d="M74.6,9.4c-2.5-1.5-5.7-0.7-7.2,1.8c-1.5,2.5-0.7,5.7,1.8,7.2C80.2,25,87.1,37.1,87.1,50c0,20.5-16.6,37.1-37,37.1     c-20.5,0-37.1-16.6-37.1-37.1c0-12.9,6.8-25,17.9-31.6c2.5-1.5,3.3-4.7,1.8-7.2c-1.5-2.5-4.7-3.3-7.2-1.8     C11.3,17.9,2.5,33.4,2.5,50c0,26.2,21.3,47.5,47.5,47.5c26.2,0,47.5-21.3,47.5-47.5C97.5,33.4,88.7,17.9,74.6,9.4z"/>
</svg>